<?xml version="1.0" encoding="utf-8"?>
<!-- Generator: Adobe Illustrator 18.0.0, SVG Export Plug-In . SVG Version: 6.00 Build 0)  -->
<!DOCTYPE svg PUBLIC "-//W3C//DTD SVG 1.1//EN" "http://www.w3.org/Graphics/SVG/1.1/DTD/svg11.dtd">
<svg version="1.1" id="Layer_1" xmlns="http://www.w3.org/2000/svg" xmlns:xlink="http://www.w3.org/1999/xlink" x="0px" y="0px"
	 viewBox="0 0 160 160" style="enable-background:new 0 0 160 160;" xml:space="preserve">
<g>
	<g>
		<path style="fill:#FFFFFF;" d="M80,160l62.9-80L80,0h0C35.8,0,0,35.8,0,80C0,124.2,35.8,160,80,160L80,160z"/>
		<path style="fill:#F2FAFB;" d="M80,0v160c44.2,0,80-35.8,80-80C160,35.8,124.2,0,80,0z"/>
	</g>
	<g>
		<path style="fill:#D27919;" d="M134.5,100.8c-1.3-0.8-3.6-1.2-5.6-1.4c-1.1,0-1.6-1.4-1.1-2.2l5.1-8.1c1.8-2.8,0.9-6.6-1.9-8.4
			l-8.2-5.2c-1-0.7-0.9-2,0.1-2.4c1.7-1,3.6-2.3,4.5-3.6c2.3-3.6,1.2-8.2-2.4-10.5c-3.6-2.3-8.2-1.3-10.5,2.3
			c-0.8,1.3-1.2,3.6-1.4,5.6c0,1.1-1.4,1.6-2.2,1.1l-10.8-6.8c-2.8-1.8-6.6-1-8.4,1.9l-3.9,6.1c-1,1.5-0.2,3.8,1.6,4.3
			c1.6,0.3,3.1,0.9,3.8,1.3c3.6,2.3,4.7,6.9,2.4,10.5c-2.3,3.6-6.9,4.6-10.5,2.3c-0.8-0.5-1.9-1.6-2.9-2.9c-1.4-1.2-3.6-1.2-4.5,0.3
			L74,91.2c-1.8,2.8-0.9,6.6,1.9,8.4l30.9,19.5c2.8,1.8,6.6,1,8.4-1.9l5.1-8.1c0.7-1,2-0.9,2.4,0.1c1,1.7,2.3,3.6,3.6,4.5
			c3.6,2.3,8.2,1.2,10.5-2.4C139.1,107.7,138.1,103.1,134.5,100.8z"/>
		
			<linearGradient id="SVGID_1_" gradientUnits="userSpaceOnUse" x1="-380.7189" y1="-68.6943" x2="-380.7189" y2="-129.1666" gradientTransform="matrix(0.8451 0.5346 -0.5346 0.8451 382.74 373.21)">
			<stop  offset="0" style="stop-color:#F7991C"/>
			<stop  offset="1" style="stop-color:#FFAE28"/>
		</linearGradient>
		<path style="fill:url(#SVGID_1_);" d="M134.5,99c-1.3-0.8-3.6-1.2-5.6-1.4c-1.1,0-1.6-1.4-1.1-2.2l5.1-8.1
			c1.8-2.8,0.9-6.6-1.9-8.4l-8.2-5.2c-1-0.7-0.9-2,0.1-2.4c1.7-1,3.6-2.3,4.5-3.6c2.3-3.6,1.2-8.2-2.4-10.5
			c-3.6-2.3-8.2-1.3-10.5,2.3c-0.8,1.3-1.2,3.6-1.4,5.6c0,1.1-1.4,1.6-2.2,1.1l-10.8-6.8c-2.8-1.8-6.6-1-8.4,1.9l-3.9,6.1
			c-1,1.5-0.2,3.8,1.6,4.3c1.6,0.3,3.1,0.9,3.8,1.3c3.6,2.3,4.7,6.9,2.4,10.5s-6.9,4.6-10.5,2.3c-0.8-0.5-1.9-1.6-2.9-2.9
			c-1.4-1.2-3.6-1.2-4.5,0.3L74,89.5c-1.8,2.8-0.9,6.6,1.9,8.4l30.9,19.5c2.8,1.8,6.6,1,8.4-1.9l5.1-8.1c0.7-1,2-0.9,2.4,0.1
			c1,1.7,2.3,3.6,3.6,4.5c3.6,2.3,8.2,1.2,10.5-2.4C139.1,105.9,138.1,101.3,134.5,99z"/>
		<g>
			<path id="path-2_9_" style="fill:#0D93CA;" d="M107.9,44.4c0.7-3.3-1.5-6.5-4.7-7.2l-9.5-2C92.4,35,92,33.7,92.8,33
				c1.3-1.6,2.6-3.5,2.9-5c0.9-4.1-1.7-8.1-5.9-8.9c-4.2-0.9-8.1,1.7-9,5.9c-0.3,1.5,0.2,3.7,0.7,5.7c0.4,1-0.7,2-1.6,1.8l-12.5-2.6
				c-3.3-0.7-6.5,1.4-7.2,4.7l-1.5,7.1c-0.4,1.8,1.1,3.6,3,3.4c1.6-0.3,3.2-0.3,4.1-0.1c4.2,0.9,6.8,4.8,5.9,8.9
				c-0.9,4.1-4.8,6.7-9,5.9c-0.9-0.2-2.3-0.8-3.7-1.7c-1.7-0.7-3.8,0.1-4.1,1.9l-1.5,7.1c-0.7,3.3,1.5,6.5,4.7,7.2l35.8,7.4
				c3.3,0.7,6.5-1.4,7.2-4.7L107.9,44.4L107.9,44.4z"/>
		</g>
		<g>
			
				<linearGradient id="path-2_1_" gradientUnits="userSpaceOnUse" x1="-333.0518" y1="369.0704" x2="-333.0518" y2="370.7504" gradientTransform="matrix(28.3975 5.8804 7.2999 -35.2521 6839.7144 15045.2129)">
				<stop  offset="0" style="stop-color:#03AAEF"/>
				<stop  offset="1" style="stop-color:#4DBEE9"/>
			</linearGradient>
			<path id="path-2_8_" style="fill:url(#path-2_1_);" d="M107.9,42.6c0.7-3.3-1.5-6.5-4.7-7.2l-9.5-2c-1.2-0.2-1.5-1.6-0.8-2.3
				c1.3-1.6,2.6-3.5,2.9-5c0.9-4.1-1.7-8.1-5.9-8.9c-4.2-0.9-8.1,1.7-9,5.9c-0.3,1.5,0.2,3.7,0.7,5.7c0.4,1-0.7,2-1.6,1.8l-12.5-2.6
				c-3.3-0.7-6.5,1.4-7.2,4.7l-1.5,7.1c-0.4,1.8,1.1,3.6,3,3.4c1.6-0.3,3.2-0.3,4.1-0.1c4.2,0.9,6.8,4.8,5.9,8.9
				c-0.9,4.1-4.8,6.7-9,5.9c-0.9-0.2-2.3-0.8-3.7-1.7c-1.7-0.7-3.8,0.1-4.1,1.9l-1.5,7.1c-0.7,3.3,1.5,6.5,4.7,7.2l35.8,7.4
				c3.3,0.7,6.5-1.4,7.2-4.7L107.9,42.6L107.9,42.6z"/>
		</g>
		<path style="fill:#D27919;" d="M76.3,58.1c-1.4,0.5-3.1,2.1-4.5,3.6c-0.6,0.9-2.1,0.4-2.4-0.4l-3.3-9c-1.2-3.1-4.7-4.7-7.8-3.6
			l-9.1,3.4c-1.1,0.4-2.1-0.5-1.9-1.6c0.2-2,0.4-4.3-0.2-5.7c-1.5-4-5.8-5.9-9.8-4.5c-4,1.5-6,5.8-4.5,9.7c0.5,1.4,2.1,3.1,3.6,4.5
			c0.9,0.6,0.4,2.1-0.4,2.4l-12,4.4c-3.1,1.2-4.8,4.7-3.6,7.8l2.5,6.8c0.6,1.7,2.9,2.5,4.4,1.3c1.2-1.1,2.5-1.9,3.4-2.2
			c4-1.5,8.3,0.5,9.8,4.5c1.5,4-0.5,8.3-4.5,9.7c-0.9,0.3-2.4,0.6-4,0.5c-1.8,0.3-3.1,2.1-2.5,3.8l2.5,6.8c1.2,3.1,4.7,4.7,7.8,3.6
			L74,91.2c3.1-1.2,4.8-4.7,3.6-7.8l-3.3-9c-0.4-1.1,0.5-2.1,1.6-1.9c2,0.2,4.3,0.4,5.7-0.2c4-1.5,5.9-5.8,4.5-9.8
			C84.6,58.6,80.3,56.6,76.3,58.1z"/>
		
			<linearGradient id="SVGID_2_" gradientUnits="userSpaceOnUse" x1="339.3306" y1="166.6609" x2="339.3306" y2="106.1886" gradientTransform="matrix(0.938 -0.3467 0.3467 0.938 -312.1057 54.487)">
			<stop  offset="0" style="stop-color:#F7991C"/>
			<stop  offset="1" style="stop-color:#FFAE28"/>
		</linearGradient>
		<path style="fill:url(#SVGID_2_);" d="M76.3,56.3c-1.4,0.5-3.1,2.1-4.5,3.6c-0.6,0.9-2.1,0.4-2.4-0.4l-3.3-9
			c-1.2-3.1-4.7-4.7-7.8-3.6l-9.1,3.4c-1.1,0.4-2.1-0.5-1.9-1.6c0.2-2,0.4-4.3-0.2-5.7c-1.5-4-5.8-5.9-9.8-4.5c-4,1.5-6,5.8-4.5,9.7
			c0.5,1.4,2.1,3.1,3.6,4.5c0.9,0.6,0.4,2.1-0.4,2.4l-12,4.4c-3.1,1.2-4.8,4.7-3.6,7.8l2.5,6.8c0.6,1.7,2.9,2.5,4.4,1.3
			c1.2-1.1,2.5-1.9,3.4-2.2c4-1.5,8.3,0.5,9.8,4.5s-0.5,8.3-4.5,9.7c-0.9,0.3-2.4,0.6-4,0.5c-1.8,0.3-3.1,2.1-2.5,3.8l2.5,6.8
			c1.2,3.1,4.7,4.7,7.8,3.6L74,89.5c3.1-1.2,4.8-4.7,3.6-7.8l-3.3-9c-0.4-1.1,0.5-2.1,1.6-1.9c2,0.2,4.3,0.4,5.7-0.2
			c4-1.5,5.9-5.8,4.5-9.8C84.6,56.8,80.3,54.9,76.3,56.3z"/>
		<g>
			<path id="path-2_7_" style="fill:#0D93CA;" d="M83.2,81.6c-2.2-2.5-6.1-2.6-8.6-0.4l-7.2,6.6c-0.9,0.8-2.2,0.3-2.3-0.7
				c-0.6-2-1.3-4.1-2.3-5.3c-2.9-3.1-7.6-3.3-10.7-0.4c-3.1,2.9-3.4,7.6-0.5,10.7c1,1.1,3.1,2.1,5,2.8c1.1,0.3,1.2,1.8,0.5,2.4
				l-9.4,8.6c-2.5,2.3-2.7,6.1-0.4,8.6l4.9,5.4c1.2,1.3,3.6,1.2,4.5-0.5c0.7-1.5,1.6-2.7,2.3-3.3c3.1-2.9,7.9-2.7,10.7,0.4
				s2.6,7.8-0.5,10.7c-0.7,0.6-2,1.4-3.5,2c-1.6,1-2.1,3.1-0.9,4.5l4.9,5.4c2.2,2.5,6.1,2.6,8.6,0.4l27-24.7
				c2.5-2.3,2.7-6.1,0.4-8.6L83.2,81.6L83.2,81.6z"/>
		</g>
		<g>
			
				<linearGradient id="path-2_2_" gradientUnits="userSpaceOnUse" x1="-311.4489" y1="357.9506" x2="-311.4489" y2="359.6306" gradientTransform="matrix(21.4036 -19.5675 -24.2907 -26.5699 15452.748 3541.6738)">
				<stop  offset="0" style="stop-color:#03AAEF"/>
				<stop  offset="1" style="stop-color:#4DBEE9"/>
			</linearGradient>
			<path id="path-2_6_" style="fill:url(#path-2_2_);" d="M83.2,79.8c-2.2-2.5-6.1-2.6-8.6-0.4L67.4,86c-0.9,0.8-2.2,0.3-2.3-0.7
				c-0.6-2-1.3-4.1-2.3-5.3c-2.9-3.1-7.6-3.3-10.7-0.4s-3.4,7.6-0.5,10.7c1,1.1,3.1,2.1,5,2.8c1.1,0.3,1.2,1.8,0.5,2.4l-9.4,8.6
				c-2.5,2.3-2.7,6.1-0.4,8.6l4.9,5.4c1.2,1.3,3.6,1.2,4.5-0.5c0.7-1.5,1.6-2.7,2.3-3.3c3.1-2.9,7.9-2.7,10.7,0.4s2.6,7.8-0.5,10.7
				c-0.7,0.6-2,1.4-3.5,2c-1.6,1-2.1,3.1-0.9,4.5l4.9,5.4c2.2,2.5,6.1,2.6,8.6,0.4l27-24.7c2.5-2.3,2.7-6.1,0.4-8.6L83.2,79.8
				L83.2,79.8z"/>
		</g>
	</g>
</g>
</svg>
